<?xml version="1.0" standalone="no"?>
<!DOCTYPE svg PUBLIC "-//W3C//DTD SVG 20010904//EN"
 "http://www.w3.org/TR/2001/REC-SVG-20010904/DTD/svg10.dtd">
<svg version="1.0" xmlns="http://www.w3.org/2000/svg"
 width="350.000000pt" height="350.000000pt" viewBox="0 0 350.000000 350.000000"
 preserveAspectRatio="xMidYMid meet">
<metadata>
Created by potrace 1.11, written by Peter Selinger 2001-2013
</metadata>
<g transform="translate(0.000000,350.000000) scale(0.100000,-0.100000)"
fill="#000000" stroke="none">
<path d="M2782 2640 c-12 -11 -22 -27 -22 -35 0 -8 -3 -15 -8 -15 -14 0 -6
-134 10 -165 16 -30 16 -31 -24 -64 -50 -42 -69 -87 -66 -154 2 -58 -19 -134
-62 -217 -15 -30 -33 -74 -39 -96 -7 -25 -29 -61 -56 -90 -41 -45 -45 -53 -45
-101 0 -51 10 -67 27 -40 4 6 6 19 5 28 -1 8 7 24 18 34 18 16 20 16 20 2 0
-25 19 -20 30 7 5 13 14 27 19 31 6 3 11 17 11 31 0 13 4 24 10 24 15 0 118
133 125 162 4 15 13 29 20 32 8 3 12 16 10 32 -1 15 0 38 4 52 l7 25 35 -36
c30 -31 34 -41 31 -74 -3 -21 -15 -54 -28 -73 -13 -19 -24 -45 -24 -58 0 -13
-10 -37 -22 -52 -13 -15 -31 -40 -40 -56 -10 -16 -22 -36 -27 -44 -12 -19 -63
-130 -65 -144 -8 -40 -31 -103 -41 -111 -13 -11 -40 -85 -59 -162 -8 -30 -12
-89 -10 -144 4 -104 2 -109 -65 -144 -25 -13 -55 -30 -66 -39 -32 -23 -6 -40
57 -37 29 2 76 4 103 5 l50 1 7 87 c4 58 15 109 33 153 14 37 28 88 30 113 6
89 59 162 136 187 26 9 60 28 75 43 l27 27 -7 -40 c-4 -22 -20 -65 -36 -95
-41 -80 -54 -136 -40 -170 14 -33 46 -52 78 -46 29 6 86 41 116 71 l23 23 12
-35 c11 -29 17 -34 39 -31 17 2 35 15 49 37 21 31 22 41 18 148 -6 122 4 200
36 299 17 52 19 79 14 177 -3 64 -8 126 -13 139 -4 13 -7 34 -7 48 1 21 5 24
25 22 14 -2 40 -13 58 -25 33 -22 33 -22 28 -87 -3 -36 -10 -79 -16 -95 -20
-51 -23 -145 -5 -192 21 -53 32 -62 71 -52 39 11 46 27 30 65 -7 16 -18 51
-25 77 -10 44 -9 55 24 148 19 56 38 124 41 153 6 49 4 53 -27 84 -30 29 -124
82 -146 82 -5 0 -31 19 -58 41 -54 45 -111 73 -190 94 -39 10 -49 17 -47 31 1
11 4 40 7 67 2 26 6 51 9 56 10 15 -32 58 -71 74 -72 28 -97 29 -121 7z"/>
<path d="M622 2258 c-274 -30 -455 -195 -523 -473 -31 -126 -31 -363 0 -480
67 -253 229 -406 471 -443 81 -12 271 -5 340 13 146 38 275 135 338 253 68
128 88 233 85 443 -3 258 -87 461 -238 574 -69 52 -135 80 -235 102 -50 11
-184 17 -238 11z m162 -249 c97 -17 182 -83 226 -176 66 -140 72 -391 13 -528
-76 -176 -240 -251 -433 -198 -130 35 -215 145 -235 304 -9 66 -9 201 0 261
36 252 195 377 429 337z"/>
<path d="M1419 2216 c-4 -4 -1 -1308 4 -1312 7 -7 252 -8 264 -1 4 3 7 119 6
259 -1 139 0 262 2 273 4 20 11 21 290 20 248 0 285 1 286 15 4 45 4 197 1
208 -3 9 -70 12 -291 12 l-287 0 -1 149 0 149 322 0 c177 -1 327 2 332 5 11 7
14 216 3 218 -5 2 -929 6 -931 5z"/>
<path d="M3032 1080 c-57 -35 -72 -114 -31 -171 51 -73 166 -63 204 17 19 41
19 68 -1 109 -28 61 -111 82 -172 45z"/>
</g>
</svg>
